<svg width="33" height="33" viewBox="0 0 33 33" fill="none" xmlns="http://www.w3.org/2000/svg">
<path d="M31.2126 0.48291H1.75349C1.04503 0.48291 0.472656 1.05528 0.472656 1.76374V31.2229C0.472656 31.9313 1.04503 32.5037 1.75349 32.5037H31.2126C31.9211 32.5037 32.4934 31.9313 32.4934 31.2229V1.76374C32.4934 1.05528 31.9211 0.48291 31.2126 0.48291ZM27.5142 9.82897H24.9565C22.9512 9.82897 22.563 10.7816 22.563 12.1825V15.2685H27.3501L26.7257 20.0996H22.563V32.5037H17.5718V20.1036H13.397V15.2685H17.5718V11.7062C17.5718 7.57151 20.0974 5.31805 23.7878 5.31805C25.5569 5.31805 27.0739 5.45013 27.5182 5.51017V9.82897H27.5142Z" fill="white"/>
</svg>
