<svg width="33" height="33" viewBox="0 0 33 33" fill="none" xmlns="http://www.w3.org/2000/svg">
<path d="M31.197 0.48291H1.73786C1.0294 0.48291 0.457031 1.05528 0.457031 1.76374V31.2229C0.457031 31.9313 1.0294 32.5037 1.73786 32.5037H31.197C31.9054 32.5037 32.4778 31.9313 32.4778 31.2229V1.76374C32.4778 1.05528 31.9054 0.48291 31.197 0.48291ZM9.95519 27.7686H5.20411V12.4867H9.95519V27.7686ZM7.58165 10.3973C7.03701 10.3973 6.50459 10.2358 6.05173 9.93325C5.59887 9.63066 5.24591 9.20057 5.03749 8.69738C4.82906 8.1942 4.77453 7.6405 4.88078 7.10632C4.98704 6.57214 5.24931 6.08146 5.63443 5.69634C6.01956 5.31121 6.51023 5.04894 7.04442 4.94268C7.5786 4.83643 8.13229 4.89096 8.63548 5.09939C9.13867 5.30782 9.56875 5.66078 9.87134 6.11363C10.1739 6.56649 10.3354 7.09891 10.3354 7.64356C10.3314 9.16454 9.09864 10.3973 7.58165 10.3973ZM27.7427 27.7686H22.9957V20.3358C22.9957 18.5626 22.9636 16.2852 20.5261 16.2852C18.0565 16.2852 17.6762 18.2144 17.6762 20.2077V27.7686H12.9331V12.4867H17.4881V14.5761H17.5521C18.1845 13.3753 19.7335 12.1065 22.047 12.1065C26.8582 12.1065 27.7427 15.2725 27.7427 19.3872V27.7686Z" fill="white"/>
</svg>
