<svg width="35" height="29" viewBox="0 0 35 29" fill="none" xmlns="http://www.w3.org/2000/svg">
<path d="M34.1455 4.17846C32.9207 4.7068 31.5878 5.08705 30.2149 5.23514C31.6403 4.38834 32.7077 3.05052 33.2168 1.4727C31.8793 2.26837 30.414 2.82631 28.886 3.12177C28.2474 2.43903 27.475 1.89514 26.617 1.52396C25.7589 1.15279 24.8337 0.962307 23.8988 0.964372C20.1163 0.964372 17.0744 4.03036 17.0744 7.7928C17.0744 8.32115 17.1384 8.84949 17.2425 9.35782C11.5788 9.06163 6.52753 6.35587 3.16936 2.21318C2.55746 3.25832 2.2368 4.44834 2.24075 5.65942C2.24075 8.02896 3.44553 10.1183 5.28273 11.3471C4.20004 11.3045 3.14271 11.0069 2.19672 10.4785V10.5626C2.19672 13.8808 4.54225 16.6305 7.66827 17.2629C7.08133 17.4154 6.47753 17.4934 5.87111 17.4951C5.42682 17.4951 5.00655 17.4511 4.58227 17.391C5.44683 20.0968 7.96447 22.0621 10.9624 22.1261C8.61689 23.9633 5.67898 25.044 2.48891 25.044C1.91654 25.044 1.3882 25.024 0.839844 24.9599C3.86581 26.9012 7.45614 28.0219 11.3226 28.0219C23.8748 28.0219 30.7432 17.6232 30.7432 8.59733C30.7432 8.30113 30.7432 8.00494 30.7232 7.70875C32.0521 6.73612 33.2168 5.53134 34.1455 4.17846Z" fill="white"/>
</svg>
