<svg width="33" height="33" viewBox="0 0 33 33" fill="none" xmlns="http://www.w3.org/2000/svg">
<path d="M31.7126 0.489746H2.25349C1.54503 0.489746 0.972656 1.06212 0.972656 1.77058V31.2297C0.972656 31.9382 1.54503 32.5105 2.25349 32.5105H31.7126C32.4211 32.5105 32.9934 31.9382 32.9934 31.2297V1.77058C32.9934 1.06212 32.4211 0.489746 31.7126 0.489746ZM28.0142 9.83581H25.4565C23.4512 9.83581 23.063 10.7884 23.063 12.1893V15.2753H27.8501L27.2257 20.1065H23.063V32.5105H18.0718V20.1105H13.897V15.2753H18.0718V11.713C18.0718 7.57835 20.5974 5.32488 24.2878 5.32488C26.0569 5.32488 27.5739 5.45697 28.0182 5.51701V9.83581H28.0142Z" fill="#2091F9"/>
</svg>
