<svg width="33" height="33" viewBox="0 0 33 33" fill="none" xmlns="http://www.w3.org/2000/svg">
<path d="M31.697 0.489746H2.23786C1.5294 0.489746 0.957031 1.06212 0.957031 1.77058V31.2297C0.957031 31.9382 1.5294 32.5105 2.23786 32.5105H31.697C32.4054 32.5105 32.9778 31.9382 32.9778 31.2297V1.77058C32.9778 1.06212 32.4054 0.489746 31.697 0.489746ZM10.4552 27.7755H5.70411V12.4935H10.4552V27.7755ZM8.08165 10.4042C7.53701 10.4042 7.00459 10.2427 6.55173 9.94008C6.09887 9.63749 5.74591 9.20741 5.53749 8.70422C5.32906 8.20103 5.27453 7.64734 5.38078 7.11316C5.48704 6.57897 5.74931 6.08829 6.13443 5.70317C6.51956 5.31805 7.01023 5.05577 7.54442 4.94952C8.0786 4.84326 8.63229 4.8978 9.13548 5.10623C9.63867 5.31465 10.0688 5.66761 10.3713 6.12047C10.6739 6.57333 10.8354 7.10574 10.8354 7.65039C10.8314 9.17138 9.59864 10.4042 8.08165 10.4042ZM28.2427 27.7755H23.4957V20.3426C23.4957 18.5695 23.4636 16.292 21.0261 16.292C18.5565 16.292 18.1762 18.2213 18.1762 20.2145V27.7755H13.4331V12.4935H17.9881V14.5829H18.0521C18.6845 13.3821 20.2335 12.1133 22.547 12.1133C27.3582 12.1133 28.2427 15.2793 28.2427 19.394V27.7755Z" fill="#2091F9"/>
</svg>
