<svg width="27" height="21" viewBox="0 0 27 21" fill="none" xmlns="http://www.w3.org/2000/svg">
<path d="M25.8125 0.194336H1.4375C0.918945 0.194336 0.5 0.613281 0.5 1.13184V19.8818C0.5 20.4004 0.918945 20.8193 1.4375 20.8193H25.8125C26.3311 20.8193 26.75 20.4004 26.75 19.8818V1.13184C26.75 0.613281 26.3311 0.194336 25.8125 0.194336ZM24.6406 3.44043V18.71H2.60938V3.44043L1.80078 2.81055L2.95215 1.33105L4.20605 2.30664H23.0469L24.3008 1.33105L25.4521 2.81055L24.6406 3.44043ZM23.0469 2.30371L13.625 9.62793L4.20312 2.30371L2.94922 1.32812L1.79785 2.80762L2.60645 3.4375L12.6143 11.2188C12.9021 11.4423 13.2561 11.5637 13.6206 11.5637C13.9851 11.5637 14.3391 11.4423 14.627 11.2188L24.6406 3.44043L25.4492 2.81055L24.2979 1.33105L23.0469 2.30371Z" fill="#2091F9"/>
</svg>
