<svg width="20" height="33" viewBox="0 0 20 33" fill="none" xmlns="http://www.w3.org/2000/svg">
<g clip-path="url(#clip0_67_7924)">
<path d="M9.9993 19.1735C12.5518 19.1735 14.6275 16.333 14.6275 12.8402C14.6275 9.34734 12.5518 6.50684 9.9993 6.50684C7.44684 6.50684 5.37109 9.34734 5.37109 12.8402C5.37109 16.333 7.44684 19.1735 9.9993 19.1735ZM9.9993 9.6735C11.2755 9.6735 12.3134 11.0938 12.3134 12.8402C12.3134 14.5866 11.2755 16.0068 9.9993 16.0068C8.72307 16.0068 7.6852 14.5866 7.6852 12.8402C7.6852 11.0938 8.72307 9.6735 9.9993 9.6735Z" fill="#2091F9"/>
<path d="M9.08542 31.5455C9.28125 31.7369 9.51588 31.8398 9.75651 31.8398C9.99715 31.8398 10.2318 31.7369 10.4276 31.5455C10.7793 31.2051 19.0465 23.0367 19.0129 12.84C19.0129 5.85592 14.8603 0.17334 9.75651 0.17334C4.65276 0.17334 0.500102 5.85592 0.500102 12.8321C0.466547 23.0367 8.73368 31.2051 9.08542 31.5455ZM9.75651 3.34001C13.5852 3.34001 16.6988 7.60076 16.6988 12.8479C16.7231 19.8748 11.6217 26.1843 9.75651 28.2538C7.8925 26.1828 2.78991 19.8716 2.8142 12.84C2.8142 7.60076 5.92783 3.34001 9.75651 3.34001Z" fill="#2091F9"/>
</g>
<defs>
<clipPath id="clip0_67_7924">
<rect width="19" height="32" fill="white" transform="translate(0.5 0.00683594)"/>
</clipPath>
</defs>
</svg>
