<svg width="34" height="29" viewBox="0 0 34 29" fill="none" xmlns="http://www.w3.org/2000/svg">
<path d="M33.6455 4.18529C32.4207 4.71364 31.0878 5.09388 29.7149 5.24198C31.1403 4.39517 32.2077 3.05736 32.7168 1.47954C31.3793 2.27521 29.914 2.83315 28.386 3.12861C27.7474 2.44587 26.975 1.90197 26.117 1.5308C25.2589 1.15963 24.3337 0.969143 23.3988 0.971208C19.6163 0.971208 16.5744 4.0372 16.5744 7.79964C16.5744 8.32798 16.6384 8.85632 16.7425 9.36465C11.0788 9.06846 6.02753 6.36271 2.66936 2.22002C2.05746 3.26516 1.7368 4.45517 1.74075 5.66625C1.74075 8.03579 2.94553 10.1251 4.78273 11.3539C3.70004 11.3113 2.64271 11.0137 1.69672 10.4854V10.5694C1.69672 13.8876 4.04225 16.6374 7.16827 17.2698C6.58133 17.4222 5.97753 17.5002 5.37111 17.5019C4.92682 17.5019 4.50655 17.4579 4.08227 17.3979C4.94683 20.1036 7.46447 22.0689 10.4624 22.1329C8.11689 23.9701 5.17898 25.0508 1.98891 25.0508C1.41654 25.0508 0.8882 25.0308 0.339844 24.9668C3.36581 26.908 6.95614 28.0288 10.8226 28.0288C23.3748 28.0288 30.2432 17.63 30.2432 8.60416C30.2432 8.30797 30.2432 8.01178 30.2232 7.71558C31.5521 6.74295 32.7168 5.53817 33.6455 4.18529Z" fill="#2091F9"/>
</svg>
