<svg width="21" height="16" viewBox="0 0 21 16" fill="none" xmlns="http://www.w3.org/2000/svg">
<path d="M18.3355 4.10263C18.3486 4.27301 18.3486 4.44242 18.3486 4.61183C18.3486 9.79637 14.2616 15.7705 6.79238 15.7705C4.49122 15.7705 2.35342 15.127 0.554443 14.0092C0.881163 14.0453 1.19578 14.0579 1.53561 14.0579C3.36382 14.0622 5.14027 13.4719 6.5786 12.3823C5.73096 12.3675 4.90927 12.0975 4.22827 11.61C3.54726 11.1225 3.04093 10.4418 2.77997 9.66299C3.03106 9.69901 3.28316 9.72335 3.54736 9.72335C3.91139 9.72335 4.27744 9.67467 4.61727 9.58997C3.69737 9.41064 2.8702 8.92922 2.2764 8.22756C1.6826 7.52591 1.35883 6.64733 1.36015 5.74123V5.69255C1.90166 5.98367 2.52989 6.16573 3.19543 6.19007C2.63788 5.83235 2.1807 5.34694 1.86469 4.77714C1.54868 4.20735 1.38366 3.57089 1.38435 2.92454C1.38435 2.19627 1.58502 1.52837 1.93695 0.94614C2.95759 2.15832 4.23055 3.15 5.6734 3.85694C7.11624 4.56389 8.69679 4.97033 10.3127 5.04996C10.2502 4.75787 10.2118 4.45508 10.2118 4.15131C10.2116 3.63622 10.3165 3.12614 10.5205 2.65021C10.7245 2.17429 11.0237 1.74186 11.4009 1.37764C11.7782 1.01342 12.226 0.724554 12.719 0.527558C13.2119 0.330562 13.7402 0.229298 14.2737 0.229554C15.4434 0.229554 16.4992 0.702734 17.2414 1.468C18.1507 1.29822 19.0227 0.977707 19.8188 0.520667C19.5157 1.42693 18.8808 2.1954 18.033 2.68211C18.8395 2.5933 19.6277 2.38852 20.3714 2.07457C19.8159 2.85648 19.1276 3.54216 18.3355 4.10263V4.10263Z" fill="#A3ABB6"/>
</svg>
