<svg width="20" height="19" viewBox="0 0 20 19" fill="none" xmlns="http://www.w3.org/2000/svg">
<path d="M1.13695 4.83652C1.13695 6.40683 1.66144 7.53989 2.69465 8.20523C3.54182 8.75179 4.52353 8.83377 5.03436 8.83377C5.15838 8.83377 5.25824 8.82747 5.32761 8.82326C5.32761 8.82326 5.16574 9.87855 5.94775 10.9212H5.91201C4.55717 10.9212 0.138428 11.204 0.138428 14.8386C0.138428 18.5342 4.19665 18.7223 5.01123 18.7223C5.07535 18.7223 5.11319 18.7202 5.11319 18.7202C5.1216 18.7202 5.17941 18.7223 5.27926 18.7223C5.80165 18.7223 7.15228 18.6572 8.40622 18.0465C10.0333 17.2582 10.8584 15.8823 10.8584 13.963C10.8584 12.1089 9.6013 11.0053 8.68371 10.1981C8.12348 9.70512 7.63893 9.28048 7.63893 8.86741C7.63893 8.44698 7.99315 8.1306 8.43986 7.73014C9.16405 7.08373 9.84725 6.16193 9.84725 4.41924C9.84725 2.88781 9.6486 1.85881 8.42409 1.20609C8.55127 1.14092 9.00323 1.09362 9.22606 1.06209C9.8893 0.971696 10.8594 0.868691 10.8594 0.327385V0.223328H6.02553C5.97718 0.22543 1.13695 0.404113 1.13695 4.83652ZM8.94017 14.3099C9.03267 15.7877 7.76822 16.8777 5.86892 17.0154C3.94018 17.1573 2.35305 16.2891 2.26056 14.8123C2.21536 14.1018 2.52753 13.4081 3.13821 12.8542C3.7573 12.2939 4.60762 11.9471 5.53257 11.8788C5.64188 11.8724 5.75014 11.8661 5.8584 11.8661C7.64419 11.8672 8.85293 12.9162 8.94017 14.3099ZM7.67782 3.82433C8.15186 5.49344 7.43608 7.23613 6.2946 7.55881C6.1632 7.59543 6.02739 7.61382 5.89099 7.61347C4.84621 7.61347 3.8109 6.55608 3.42621 5.09824C3.21179 4.2826 3.22965 3.56576 3.47561 2.87836C3.7163 2.20041 4.15145 1.74529 4.69801 1.59078C4.8294 1.55399 4.96499 1.53508 5.10268 1.53508C6.36397 1.53508 7.17541 2.05851 7.67782 3.82433ZM15.8636 7.37067V4.21743H13.7615V7.37067H10.6082V9.47283H13.7615V12.6261H15.8636V9.47283H19.0169V7.37067H15.8636Z" fill="#A3ABB6"/>
</svg>
