<svg width="21" height="14" viewBox="0 0 21 14" fill="none" xmlns="http://www.w3.org/2000/svg">
<path d="M0.944092 13.2979V0.245239H5.5161C7.09987 0.245239 8.30114 0.55004 9.11992 1.15964C9.93869 1.76327 10.3481 2.65077 10.3481 3.82216C10.3481 4.46165 10.1837 5.02642 9.85502 5.51649C9.52632 6.00059 9.06912 6.35619 8.48342 6.5833C9.15279 6.75064 9.67872 7.08831 10.0612 7.59631C10.4497 8.10431 10.6439 8.72586 10.6439 9.46097C10.6439 10.716 10.2435 11.6663 9.44265 12.3118C8.6418 12.9572 7.50029 13.2859 6.01812 13.2979H0.944092ZM3.63351 7.61424V11.1374H5.93744C6.57095 11.1374 7.06401 10.988 7.41662 10.6891C7.77521 10.3843 7.9545 9.96598 7.9545 9.43408C7.9545 8.23878 7.33594 7.63217 6.09881 7.61424H3.63351ZM3.63351 5.71372H5.62368C6.98034 5.68981 7.65867 5.14894 7.65867 4.0911C7.65867 3.49943 7.48535 3.0751 7.13871 2.81811C6.79805 2.55515 6.25718 2.42367 5.5161 2.42367H3.63351V5.71372Z" fill="#A3ABB6"/>
<path d="M16.964 13.4772C15.5416 13.4772 14.3822 13.0409 13.4857 12.1683C12.5952 11.2958 12.15 10.1333 12.15 8.68104V8.43003C12.15 7.45586 12.3383 6.58628 12.7148 5.8213C13.0913 5.05033 13.6232 4.45866 14.3105 4.04628C15.0038 3.62793 15.7927 3.41875 16.6772 3.41875C18.004 3.41875 19.0468 3.8371 19.8059 4.67381C20.5709 5.51052 20.9533 6.69685 20.9533 8.2328V9.29064H14.7767C14.8603 9.92415 15.1113 10.4321 15.5297 10.8146C15.954 11.1971 16.4889 11.3884 17.1344 11.3884C18.1324 11.3884 18.9124 11.0268 19.4742 10.3037L20.7472 11.729C20.3587 12.2789 19.8328 12.7092 19.1694 13.02C18.506 13.3248 17.7709 13.4772 16.964 13.4772ZM16.6682 5.51649C16.1542 5.51649 15.7359 5.68981 15.4131 6.03645C15.0964 6.38308 14.8932 6.87913 14.8035 7.52459H18.4074V7.3184C18.3954 6.74466 18.24 6.3024 17.9412 5.99162C17.6424 5.67487 17.218 5.51649 16.6682 5.51649Z" fill="#A3ABB6"/>
</svg>
